<?xml version="1.0" standalone="no"?>
<!DOCTYPE svg PUBLIC "-//W3C//DTD SVG 20010904//EN"
 "http://www.w3.org/TR/2001/REC-SVG-20010904/DTD/svg10.dtd">
<svg version="1.0" xmlns="http://www.w3.org/2000/svg"
 width="178.000000pt" height="240.000000pt" viewBox="0 0 178.000000 240.000000"
 preserveAspectRatio="xMidYMid meet">
<metadata>
Created by potrace 1.10, written by Peter Selinger 2001-2011
</metadata>
<g transform="translate(0.000000,240.000000) scale(0.100000,-0.100000)"
fill="#000000" stroke="none">
<path d="M790 2296 c-139 -30 -219 -117 -163 -178 13 -15 14 -18 2 -18 -24 0
-39 22 -39 54 l-1 31 -21 -25 c-52 -62 -105 -237 -79 -263 12 -12 11 -13 17
50 4 49 33 143 45 143 20 0 20 -31 0 -65 -26 -45 -26 -62 -1 -149 19 -68 19
-99 -1 -63 -10 16 -29 15 -29 -2 0 -4 16 -24 36 -45 43 -44 44 -82 2 -105 -31
-18 -52 -6 -25 13 23 18 22 36 -8 76 -28 38 -31 62 -12 82 27 27 26 43 -4 44
l-29 1 0 -148 0 -149 -56 -162 c-31 -90 -58 -173 -61 -185 l-5 -22 83 25 c144
43 260 106 344 187 41 40 75 78 75 85 0 8 -20 -6 -44 -30 -51 -50 -107 -95
-120 -96 -5 0 -13 -7 -18 -16 -5 -9 -14 -16 -19 -16 -6 0 -7 6 -3 13 6 9 4 9
-8 -1 -14 -11 -17 -9 -22 15 -5 19 -20 37 -49 54 l-43 26 -16 -27 c-15 -27
-15 -28 3 -33 24 -6 26 -49 3 -71 -8 -9 -27 -16 -42 -16 -19 0 -32 -9 -44 -30
-10 -18 -25 -30 -37 -30 -21 0 -21 0 -2 31 11 18 17 37 15 44 -3 7 4 15 15 18
27 7 37 35 22 60 -8 12 -9 22 -3 26 6 3 12 17 13 31 3 20 10 25 32 25 30 -1
35 9 12 23 -14 7 -14 13 -2 48 8 21 13 47 11 57 -1 9 1 17 4 18 47 5 92 35 92
60 0 20 15 25 25 9 4 -6 12 -10 18 -9 7 2 32 -3 56 -10 23 -7 45 -10 48 -7 3
3 -8 8 -23 12 -66 16 -148 100 -161 165 l-6 33 28 -22 c16 -13 41 -44 56 -70
26 -47 79 -92 128 -110 23 -8 21 -10 -32 -40 -30 -17 -58 -36 -62 -42 -8 -13
36 10 46 23 15 20 80 32 152 27 72 -5 92 0 66 16 -6 3 6 14 28 24 45 20 133
111 133 137 0 12 13 25 35 35 32 14 35 14 35 -1 0 -48 -98 -154 -157 -170 -24
-7 -43 -14 -43 -17 0 -9 73 6 84 16 5 5 15 6 24 3 8 -4 13 -2 9 3 -3 5 3 10
14 10 11 0 19 -7 19 -17 0 -18 45 -52 68 -52 16 0 27 -25 37 -84 5 -35 3 -45
-14 -60 -12 -9 -21 -28 -21 -40 0 -13 -4 -23 -8 -23 -13 0 -42 -56 -42 -80 0
-19 -2 -20 -15 -10 -19 16 -19 40 1 69 16 22 16 23 -5 12 -11 -7 -21 -15 -21
-19 0 -4 -7 -15 -15 -26 -13 -17 -17 -16 -84 29 -80 54 -117 89 -66 63 56 -29
138 -38 206 -23 l29 7 -20 26 c-75 97 -170 170 -170 130 0 -6 3 -9 6 -5 12 12
61 -22 113 -80 l52 -58 -28 -8 c-42 -12 -131 1 -174 25 -29 16 -43 34 -64 85
-35 82 -43 77 -10 -7 28 -73 29 -73 15 -65 -6 4 -2 -8 8 -27 24 -42 138 -129
227 -172 68 -33 235 -89 242 -82 6 5 -28 109 -38 121 -5 5 -9 18 -9 30 0 12
-6 30 -14 40 -12 16 -16 17 -30 6 -23 -19 -20 -50 7 -62 12 -6 31 -31 43 -55
20 -43 20 -44 2 -44 -11 0 -26 13 -36 30 -11 20 -25 30 -40 30 -40 0 -62 18
-62 51 0 22 5 32 20 36 24 6 26 19 5 27 -8 3 -15 14 -15 24 0 42 61 57 68 17
2 -11 9 -24 14 -30 12 -12 9 6 -21 120 -16 61 -21 105 -20 192 1 106 0 114
-21 131 -21 17 -22 22 -11 54 12 36 3 79 -18 93 -6 3 -11 18 -11 33 0 59 38
-30 51 -118 7 -54 8 -53 4 15 -2 50 -11 88 -30 130 -27 59 -27 60 -42 38 -9
-13 -25 -23 -37 -23 -20 1 -20 2 -3 14 24 19 22 68 -5 93 -39 35 -111 71 -174
87 -71 18 -89 19 -164 2z m175 -20 c52 -12 56 -14 34 -21 -15 -3 -44 -2 -65 4
-51 14 -97 14 -146 -1 -28 -8 -42 -8 -49 -1 -8 8 1 14 32 21 61 14 124 13 194
-2z m-50 -62 c9 -19 12 -20 32 -7 27 18 63 2 63 -29 0 -15 3 -18 13 -11 16 13
68 26 65 16 -1 -5 4 -19 11 -32 7 -12 11 -32 8 -42 -4 -14 0 -19 13 -19 43 0
67 -61 33 -85 -15 -11 -15 -13 5 -19 13 -4 24 -19 28 -34 3 -15 8 -34 10 -42
3 -8 2 -12 -1 -8 -4 3 -15 -2 -26 -13 -33 -33 -44 -24 -45 39 -1 143 -142 267
-282 248 -71 -10 -141 -54 -185 -118 -35 -50 -39 -61 -39 -121 0 -37 -3 -67
-6 -67 -3 0 -14 7 -24 17 -25 23 -24 79 2 93 18 10 19 13 5 33 -18 29 0 70 33
75 17 3 22 10 22 31 0 37 32 65 64 57 17 -4 26 -1 30 11 9 24 4 25 -43 8 -39
-13 -42 -13 -39 2 5 25 54 40 78 25 13 -8 27 -9 44 -2 19 7 26 5 30 -6 5 -13
10 -12 33 6 32 25 54 23 68 -6z m135 6 c11 -6 12 -12 4 -20 -8 -8 -18 -5 -35
9 -22 19 -23 20 -4 21 11 0 27 -5 35 -10z m-67 -87 c60 -33 60 -47 1 -40 -54
6 -80 24 -31 21 22 -1 24 0 7 3 -14 3 -31 10 -39 16 -17 14 -42 18 -61 10 -18
-8 -27 -10 -41 -12 -5 0 -8 -5 -5 -10 8 -13 -40 -31 -82 -31 l-37 0 25 21 c48
39 122 61 180 52 19 -2 56 -16 83 -30z m11 -51 l64 -4 26 -48 c59 -109 15
-248 -99 -315 -91 -54 -195 -41 -278 34 -54 48 -77 101 -77 178 0 50 5 71 27
108 27 43 30 45 76 45 53 0 105 18 126 44 13 16 16 15 43 -11 23 -22 39 -28
92 -31z m233 -259 c14 -21 14 -26 -1 -48 -52 -80 -49 -71 -25 -94 28 -25 18
-38 -19 -25 -22 7 -28 16 -30 45 -3 30 2 41 27 62 18 15 31 35 31 49 0 18 -2
20 -10 8 -8 -12 -10 -11 -10 7 0 12 3 30 7 40 7 17 8 17 11 -2 3 -10 11 -29
19 -42z m-641 -418 c10 -16 14 -34 10 -50 -8 -31 -26 -33 -26 -2 0 13 -7 32
-15 43 -19 24 -19 34 0 34 8 0 22 -11 31 -25z"/>
<path d="M703 2060 c-13 -5 -23 -15 -23 -21 0 -8 4 -8 13 -2 6 6 26 15 42 21
21 7 24 10 10 11 -11 0 -30 -4 -42 -9z"/>
<path d="M953 2060 c-35 -14 -27 -19 11 -8 27 9 41 7 67 -6 28 -14 31 -14 19
-2 -20 20 -69 28 -97 16z"/>
<path d="M719 2011 c-7 -2 -24 -14 -38 -27 -24 -22 -24 -23 -5 -30 10 -4 22
-12 26 -18 8 -12 89 -9 102 4 4 4 5 22 1 38 -5 25 -12 31 -39 34 -19 2 -40 2
-47 -1z m23 -36 c-3 -18 0 -25 11 -25 9 0 19 5 22 10 3 6 1 10 -4 10 -6 0 -11
8 -11 17 0 15 3 14 22 -5 28 -28 14 -45 -32 -40 -39 4 -48 19 -25 42 22 21 23
20 17 -9z"/>
<path d="M934 1975 c-3 -20 -5 -37 -3 -39 2 -2 25 -6 50 -8 38 -4 50 -1 68 18
19 20 20 24 7 37 -8 8 -12 17 -9 21 4 3 -19 6 -50 6 l-56 0 -7 -35z m80 6 c25
-27 12 -41 -35 -41 -32 0 -40 3 -37 17 4 22 28 29 28 9 0 -17 15 -22 25 -7 3
5 -2 17 -11 25 -12 13 -13 16 -1 16 8 0 22 -9 31 -19z"/>
<path d="M854 1799 c-3 -6 -15 -8 -26 -6 -19 5 -19 4 3 -19 26 -28 57 -31 74
-7 11 14 10 20 -4 30 -20 15 -38 16 -47 2z"/>
<path d="M595 1644 c-16 -8 -37 -22 -45 -30 -8 -9 7 -4 34 10 60 32 97 34 41
3 -36 -20 -85 -77 -85 -99 0 -5 27 19 59 52 32 33 65 60 72 60 11 0 11 3 -1
10 -21 14 -40 12 -75 -6z"/>
<path d="M1065 1651 c-3 -5 5 -13 17 -17 12 -4 47 -32 77 -63 l54 -56 -21 41
c-12 23 -36 51 -54 63 -44 28 -20 27 29 -1 27 -16 34 -18 25 -6 -28 35 -113
61 -127 39z"/>
<path d="M830 1610 c0 -19 -90 -98 -119 -105 -17 -4 -33 -10 -36 -15 -6 -10
42 3 72 18 39 21 111 112 88 112 -3 0 -5 -4 -5 -10z"/>
<path d="M910 1586 c0 -22 75 -84 116 -95 53 -15 53 -7 0 13 -25 10 -61 35
-80 57 -20 21 -36 33 -36 25z"/>
<path d="M841 1563 c-28 -67 -96 -103 -196 -103 -36 0 -65 3 -65 8 0 4 21 32
46 62 l46 55 -56 -60 c-31 -33 -56 -63 -56 -66 0 -8 54 -19 94 -19 50 0 134
28 157 53 27 28 51 75 47 89 -2 6 -10 -2 -17 -19z"/>
<path d="M785 1276 c-104 -26 -184 -83 -260 -185 -13 -19 -29 -37 -34 -40 -4
-3 -21 -42 -36 -86 -36 -102 -41 -257 -11 -345 80 -233 280 -376 480 -342 142
23 260 114 328 252 46 95 56 128 63 215 9 115 -32 251 -51 168 -3 -15 -13 -47
-22 -69 -15 -39 -17 -40 -27 -20 -6 11 -18 22 -27 24 -16 3 -18 -8 -4 -40 9
-19 -16 -52 -59 -79 -16 -10 -24 -19 -17 -19 19 0 53 19 80 44 13 11 27 19 30
16 4 -3 11 10 17 28 13 44 45 45 45 1 0 -30 -29 -67 -75 -96 -17 -11 -13 -12
30 -10 44 2 50 0 50 -18 0 -18 -6 -20 -54 -17 -36 3 -51 0 -47 -7 4 -6 13 -11
20 -11 17 0 46 -33 46 -52 0 -9 -7 -19 -16 -22 -8 -3 -13 -10 -9 -15 8 -13 -5
-61 -16 -61 -12 0 -8 63 5 72 7 4 1 17 -14 32 -32 35 -46 33 -20 -3 11 -16 16
-32 11 -35 -5 -4 -11 -1 -13 5 -3 8 -23 9 -67 4 -75 -9 -72 -18 7 -19 47 -1
57 -4 60 -20 7 -34 -42 -47 -88 -23 -14 8 -39 18 -57 24 l-31 11 14 -51 c16
-62 17 -77 4 -97 -18 -27 -40 15 -33 65 4 32 2 43 -10 48 -13 5 -15 -4 -12
-61 2 -37 5 -80 7 -97 2 -25 -1 -31 -19 -33 -29 -4 -38 28 -30 108 4 49 3 58
-10 53 -11 -4 -14 -19 -11 -62 3 -48 0 -56 -15 -59 -16 -3 -18 2 -16 45 3 53
-4 73 -26 73 -10 0 -11 -9 -5 -37 10 -40 4 -103 -9 -116 -16 -16 -46 -3 -43
18 16 90 11 182 -9 170 -5 -4 -9 -27 -9 -53 0 -53 -12 -78 -30 -67 -14 9 -7
104 11 136 12 24 12 24 -60 -7 -64 -28 -107 -27 -118 2 -8 22 16 35 52 30 17
-3 39 -1 50 4 17 7 15 9 -11 9 -65 2 -92 12 -87 32 8 29 -5 23 -26 -12 -17
-28 -17 -33 -4 -60 8 -17 12 -33 9 -36 -10 -10 -37 20 -31 34 3 8 -5 23 -17
33 l-23 18 45 42 c38 36 41 41 20 36 -14 -4 -35 -12 -47 -18 -28 -14 -55 -3
-51 19 2 13 16 19 52 23 l50 5 -37 13 c-43 15 -77 55 -77 88 0 31 28 32 39 1
5 -13 17 -29 27 -37 16 -14 16 -13 7 5 -6 11 -21 44 -34 74 -23 52 -23 53 -4
67 17 13 17 14 1 14 -14 0 -16 6 -10 38 4 20 11 39 15 40 5 2 9 12 9 21 0 10
9 28 20 41 11 13 20 27 20 31 0 4 22 30 50 58 33 33 55 48 65 44 9 -3 14 -8
11 -10 -6 -6 48 -53 60 -53 4 0 -7 15 -25 34 -32 33 -35 56 -5 56 8 0 34 -31
59 -70 25 -38 47 -70 50 -70 3 0 2 8 -3 18 -28 51 -62 135 -62 148 0 9 7 14
16 12 22 -4 79 -175 64 -193 -14 -17 -1 -26 22 -14 10 6 28 7 40 3 19 -6 20
-11 14 -77 -4 -40 -11 -76 -16 -81 -7 -7 -10 -4 -10 7 0 26 -44 127 -55 127
-27 0 -78 -44 -95 -83 -37 -80 -21 -153 45 -217 28 -27 44 -34 88 -38 139 -11
226 113 168 241 -22 48 -44 71 -84 86 -16 6 -27 18 -27 30 0 24 -19 39 -48 36
-24 -2 -24 -1 -52 123 -9 40 -9 57 -1 65 21 21 36 -12 42 -91 l6 -77 1 72 c2
80 8 103 27 103 23 0 25 -15 10 -95 -18 -90 -17 -88 -6 -81 4 3 14 39 21 81
13 77 23 96 43 76 7 -7 6 -21 -6 -48 -20 -48 -39 -119 -28 -107 5 5 16 31 26
57 10 26 26 52 36 57 29 16 33 -7 9 -48 l-21 -37 31 33 c28 30 30 36 17 50
-29 35 -29 41 1 32 50 -14 75 -30 143 -90 29 -26 79 -95 79 -109 0 -5 7 -14
15 -21 12 -10 15 -9 15 5 0 19 -80 126 -125 167 -43 39 -141 86 -204 98 -66
12 -82 12 -146 -4z m183 -319 c2 -10 -8 -27 -23 -39 -15 -11 -32 -32 -38 -47
l-11 -26 -4 31 c-2 18 4 49 12 69 12 29 20 36 38 33 13 -2 24 -11 26 -21z
m-154 -14 c7 -16 19 -46 24 -68 l11 -40 -27 32 c-15 17 -40 36 -55 42 -25 10
-36 38 -20 54 16 17 53 6 67 -20z m184 -80 c5 -32 -67 -103 -103 -102 -17 0
-42 -2 -57 -6 -19 -5 -31 -2 -47 14 -12 12 -26 21 -33 21 -23 0 -48 33 -48 64
1 27 2 29 13 15 28 -37 90 -69 134 -69 35 0 50 6 78 32 19 17 35 38 35 45 0
22 25 9 28 -14z m-12 -118 c-9 -14 -37 -35 -62 -47 -41 -19 -50 -20 -100 -9
-36 8 -58 19 -65 33 -13 23 -5 35 13 20 31 -25 146 -18 189 11 41 28 47 26 25
-8z m-282 -302 c-24 -71 -45 -89 -64 -53 -9 17 -7 27 10 55 20 32 56 65 70 65
4 0 -4 -30 -16 -67z m391 13 c28 -37 31 -58 11 -75 -18 -15 -46 11 -46 42 -1
12 -7 33 -15 47 -8 14 -14 29 -15 33 0 15 40 -14 65 -47z m-455 15 c0 -14 -50
-43 -66 -37 -24 9 -16 34 14 39 48 7 52 7 52 -2z m548 -19 c6 -20 -25 -25 -52
-7 -14 10 -24 21 -21 25 7 11 68 -4 73 -18z m-444 -78 c9 -4 16 -18 16 -35 l0
-28 -35 15 c-20 8 -41 12 -46 8 -8 -4 -7 0 0 14 15 28 37 37 65 26z m323 -9
c3 -12 -53 -46 -61 -37 -10 9 -7 20 10 37 17 17 45 17 51 0z m-167 -50 c11
-13 8 -15 -14 -15 -25 0 -33 10 -19 23 10 11 19 8 33 -8z"/>
<path d="M496 1201 c-12 -13 -16 -32 -14 -66 l3 -46 38 56 c21 31 35 60 32 66
-10 15 -41 10 -59 -10z"/>
<path d="M1190 1206 c0 -8 15 -37 34 -65 29 -43 36 -48 41 -32 8 25 -4 71 -23
94 -18 20 -52 23 -52 3z"/>
<path d="M397 1173 c-14 -13 -6 -46 21 -84 46 -65 51 -50 16 49 -15 41 -24 49
-37 35z"/>
<path d="M1320 1165 c-15 -18 -40 -115 -30 -115 13 0 70 82 70 101 0 22 -26
31 -40 14z"/>
<path d="M977 1112 c-9 -10 -22 -34 -29 -52 -10 -30 -9 -35 8 -44 97 -54 136
-204 76 -290 -49 -71 -169 -110 -233 -76 -11 7 -23 9 -26 6 -4 -3 10 -12 29
-20 45 -19 120 -11 168 17 37 21 86 67 73 67 -4 0 -3 4 2 8 56 40 27 221 -44
271 -38 27 -40 59 -7 90 20 18 28 21 44 12 12 -6 24 -20 27 -31 9 -28 28 -25
20 3 -15 51 -77 74 -108 39z"/>
<path d="M625 1085 c-27 -26 -30 -41 -15 -65 8 -12 10 -11 10 6 0 12 9 31 19
43 23 26 47 18 75 -25 17 -25 17 -27 -7 -53 -70 -72 -74 -225 -8 -283 l25 -23
-17 25 c-29 42 -47 91 -47 124 0 50 28 121 60 152 37 37 37 54 1 93 -35 37
-64 39 -96 6z"/>
<path d="M357 1073 c-13 -12 -7 -23 23 -38 60 -31 83 -11 26 24 -37 23 -40 24
-49 14z"/>
<path d="M1329 1050 c-27 -23 -30 -30 -16 -30 11 0 34 7 53 16 27 13 32 19 23
30 -16 20 -22 18 -60 -16z"/>
<path d="M1113 1029 c-22 -8 -32 -20 -15 -18 59 10 79 -21 58 -92 -14 -45 -14
-49 -1 -39 8 7 20 29 26 49 19 64 -19 119 -68 100z"/>
<path d="M536 978 c-22 -31 -20 -69 7 -108 29 -44 53 -53 30 -11 -10 17 -21
31 -25 31 -13 0 -9 65 4 78 7 7 20 12 31 12 10 0 15 5 12 10 -11 17 -43 11
-59 -12z"/>
<path d="M388 964 c-21 -13 -47 -42 -58 -64 -35 -68 -20 -174 22 -157 12 4 17
25 19 80 4 60 9 81 32 116 16 24 27 44 25 46 -2 1 -20 -8 -40 -21z"/>
<path d="M1310 985 c0 -5 11 -22 24 -39 27 -37 40 -82 40 -151 1 -44 4 -50 23
-53 53 -8 46 145 -9 195 -32 28 -78 57 -78 48z"/>
<path d="M524 796 c-18 -14 -18 -16 -2 -44 10 -16 14 -33 10 -37 -4 -5 -2 -5
5 -2 6 4 32 -2 59 -13 26 -11 48 -19 50 -17 2 2 -15 15 -39 30 -52 33 -75 65
-52 73 8 4 15 10 15 15 0 14 -24 11 -46 -5z"/>
<path d="M1100 670 c0 -5 5 -10 10 -10 20 0 10 -30 -15 -46 -19 -13 -38 -15
-77 -11 -41 5 -49 4 -39 -6 6 -6 36 -12 66 -12 43 0 58 5 79 24 29 28 34 56
10 65 -23 9 -34 7 -34 -4z"/>
<path d="M613 653 c-19 -7 -16 -37 5 -56 23 -21 120 -23 146 -4 16 12 10 13
-43 9 -67 -5 -92 7 -84 38 5 20 -1 23 -24 13z"/>
<path d="M364 605 c-11 -27 3 -92 26 -125 23 -33 87 -70 120 -70 16 0 10 9
-29 48 -29 27 -52 59 -56 77 -12 61 -21 80 -38 83 -9 2 -20 -4 -23 -13z"/>
<path d="M1332 608 c-7 -7 -12 -20 -12 -29 0 -34 -34 -95 -73 -131 -43 -40
-34 -49 24 -24 49 21 86 64 100 118 10 38 10 49 0 62 -16 19 -23 20 -39 4z"/>
<path d="M798 583 c6 -37 28 -60 69 -74 28 -9 38 -8 58 5 27 18 43 62 28 77
-7 7 -12 1 -16 -18 -3 -15 -16 -34 -28 -41 -18 -12 -26 -11 -55 4 -18 10 -38
31 -43 46 -13 36 -20 36 -13 1z"/>
<path d="M513 358 c-37 -26 -45 -39 -33 -58 13 -21 37 -4 60 40 23 46 18 49
-27 18z"/>
<path d="M1180 371 c0 -20 43 -81 56 -81 31 0 28 33 -6 62 -36 29 -50 35 -50
19z"/>
<path d="M557 308 c-21 -55 -19 -91 5 -96 21 -4 29 37 20 98 l-7 45 -18 -47z"/>
<path d="M1152 283 c2 -53 7 -68 19 -71 26 -5 30 25 13 79 -24 73 -35 71 -32
-8z"/>
<path d="M622 283 c18 -67 79 -109 95 -66 4 11 -1 22 -18 32 -13 9 -38 29 -56
44 l-32 28 11 -38z"/>
<path d="M1068 276 c-48 -42 -57 -59 -38 -71 20 -13 51 7 71 46 32 63 20 72
-33 25z"/>
<path d="M480 153 c-20 -18 -33 -41 -37 -66 l-6 -37 432 0 c428 0 431 0 431
20 0 29 -26 76 -52 94 -19 14 -72 16 -380 16 l-358 0 -30 -27z m75 -25 c-10
-44 -13 -48 -36 -48 -16 0 -19 4 -13 23 7 26 33 57 46 57 6 0 7 -14 3 -32z
m136 -21 c-12 -31 -41 -36 -41 -7 0 25 44 68 48 47 2 -7 -2 -26 -7 -40z m142
20 c-8 -29 -22 -47 -39 -47 -21 0 -17 31 7 57 26 26 39 22 32 -10z m123 -8
c13 -26 13 -30 -1 -36 -21 -8 -33 5 -41 45 -6 27 -4 31 10 26 9 -4 23 -19 32
-35z m137 3 c17 -29 17 -32 2 -38 -21 -8 -31 3 -40 45 -9 43 11 39 38 -7z
m137 6 c25 -41 25 -48 1 -48 -23 0 -26 4 -36 48 -4 21 -3 32 4 32 6 0 20 -15
31 -32z m-614 -9 c10 -17 -13 -36 -27 -22 -12 12 -4 33 11 33 5 0 12 -5 16
-11z m274 -9 c0 -11 -7 -20 -15 -20 -8 0 -15 9 -15 20 0 11 7 20 15 20 8 0 15
-9 15 -20z m136 9 c10 -17 -13 -36 -27 -22 -12 12 -4 33 11 33 5 0 12 -5 16
-11z m140 0 c10 -17 -13 -36 -27 -22 -12 12 -4 33 11 33 5 0 12 -5 16 -11z"/>
</g>
</svg>
