<?xml version="1.0" standalone="no"?>
<!DOCTYPE svg PUBLIC "-//W3C//DTD SVG 20010904//EN"
 "http://www.w3.org/TR/2001/REC-SVG-20010904/DTD/svg10.dtd">
<svg version="1.0" xmlns="http://www.w3.org/2000/svg"
 width="276.000000pt" height="277.000000pt" viewBox="0 0 276.000000 277.000000"
 preserveAspectRatio="xMidYMid meet">
<metadata>
Created by potrace 1.10, written by Peter Selinger 2001-2011
</metadata>
<g transform="translate(0.000000,277.000000) scale(0.100000,-0.100000)"
fill="#000000" stroke="none">
<path d="M72 2741 c31 -40 56 -41 26 -1 -12 17 -28 30 -36 30 -9 0 -7 -9 10
-29z"/>
<path d="M261 2738 c13 -18 41 -58 63 -88 22 -30 42 -57 43 -59 2 -2 6 -2 9 1
6 7 -117 178 -129 178 -4 0 2 -15 14 -32z"/>
<path d="M345 2743 c60 -92 82 -122 88 -117 7 8 -84 143 -97 144 -4 0 0 -12 9
-27z"/>
<path d="M636 2713 c26 -59 44 -86 44 -66 0 20 -50 123 -59 123 -6 0 1 -26 15
-57z"/>
<path d="M689 2725 c9 -25 20 -45 24 -45 5 0 6 8 2 18 -4 9 -12 29 -17 45 -5
15 -13 27 -18 27 -4 0 0 -20 9 -45z"/>
<path d="M753 2753 c9 -32 70 -198 73 -202 2 -2 7 -2 10 2 9 8 -67 217 -79
217 -5 0 -7 -8 -4 -17z"/>
<path d="M1049 2696 c16 -73 31 -108 31 -70 0 10 -4 35 -9 54 -5 19 -12 47
-15 63 -4 15 -10 27 -15 27 -5 0 -1 -33 8 -74z"/>
<path d="M1106 2710 c4 -36 11 -69 17 -75 6 -7 7 12 3 55 -4 36 -12 69 -17 75
-6 6 -7 -15 -3 -55z"/>
<path d="M1280 2700 c0 -40 4 -70 10 -70 6 0 10 30 10 70 0 40 -4 70 -10 70
-6 0 -10 -30 -10 -70z"/>
<path d="M1407 2706 c-7 -64 -5 -87 8 -74 3 3 5 37 3 74 l-3 69 -8 -69z"/>
<path d="M1546 2738 c-14 -90 -16 -128 -8 -128 4 0 13 36 18 80 5 44 6 80 2
80 -4 0 -9 -15 -12 -32z"/>
<path d="M1602 2705 c-7 -35 -15 -71 -18 -80 -3 -8 -1 -15 4 -15 6 0 16 26 22
58 6 31 14 67 17 80 3 12 1 22 -4 22 -5 0 -15 -29 -21 -65z"/>
<path d="M1776 2672 c-36 -98 -44 -135 -27 -117 8 9 81 198 81 210 0 3 -4 5
-9 5 -5 0 -25 -44 -45 -98z"/>
<path d="M2010 2740 c-17 -41 -6 -50 14 -11 18 35 19 41 7 41 -5 0 -14 -14
-21 -30z"/>
<path d="M2197 2730 c-16 -22 -24 -40 -18 -40 8 0 34 31 55 68 17 29 -12 8
-37 -28z"/>
<path d="M2480 2739 c-37 -50 -17 -48 29 4 20 21 21 27 8 27 -8 0 -25 -14 -37
-31z"/>
<path d="M1320 2703 c0 -36 4 -63 10 -63 13 0 13 90 0 110 -7 11 -10 -3 -10
-47z"/>
<path d="M1467 2693 c-3 -32 -2 -62 3 -67 7 -7 10 9 10 41 0 28 3 58 6 67 3 9
2 16 -4 16 -5 0 -12 -26 -15 -57z"/>
<path d="M1170 2691 c0 -27 5 -53 10 -56 6 -4 10 13 10 44 0 27 -4 53 -10 56
-6 4 -10 -13 -10 -44z"/>
<path d="M470 2726 c0 -15 164 -268 168 -258 1 5 -29 61 -69 123 -70 112 -99
151 -99 135z"/>
<path d="M974 2704 c3 -18 12 -47 21 -65 l15 -34 -4 31 c-3 18 -12 47 -21 65
l-15 34 4 -31z"/>
<path d="M902 2708 c3 -7 13 -37 22 -65 10 -29 22 -53 28 -53 5 0 7 6 5 13 -3
6 -14 36 -23 65 -10 28 -22 52 -27 52 -5 0 -7 -6 -5 -12z"/>
<path d="M2060 2640 c-23 -47 -56 -109 -72 -138 -16 -30 -27 -56 -24 -60 8 -7
4 -14 80 131 37 71 65 134 63 140 -2 7 -23 -26 -47 -73z"/>
<path d="M2216 2623 c-38 -54 -71 -106 -74 -118 -7 -29 5 -15 82 98 37 53 66
101 64 107 -2 5 -34 -34 -72 -87z"/>
<path d="M2530 2575 c-79 -79 -141 -147 -138 -151 4 -3 64 54 135 126 115 119
160 170 151 170 -2 0 -68 -65 -148 -145z"/>
<path d="M842 2630 c11 -33 24 -60 29 -60 5 0 9 2 9 5 0 10 -49 115 -54 115
-2 0 4 -27 16 -60z"/>
<path d="M1652 2650 c-14 -47 -15 -60 -3 -60 5 0 12 16 15 36 4 19 10 42 13
50 3 8 1 14 -3 14 -5 0 -15 -18 -22 -40z"/>
<path d="M246 2618 c25 -34 49 -69 54 -77 5 -9 12 -13 16 -9 8 8 -93 148 -107
148 -5 0 12 -28 37 -62z"/>
<path d="M576 2669 c6 -8 28 -45 49 -84 42 -78 55 -96 54 -74 0 22 -84 162
-100 168 -11 3 -11 1 -3 -10z"/>
<path d="M1806 2628 c-21 -49 -31 -95 -19 -83 13 13 44 107 38 113 -3 3 -11
-10 -19 -30z"/>
<path d="M1875 2575 c-16 -36 -26 -68 -22 -71 6 -6 43 74 53 113 11 43 -4 23
-31 -42z"/>
<path d="M2250 2573 c-57 -69 -69 -88 -53 -82 22 8 129 153 111 148 -2 0 -28
-30 -58 -66z"/>
<path d="M690 2613 c0 -18 34 -93 41 -93 12 0 12 1 -11 54 -19 42 -30 57 -30
39z"/>
<path d="M2103 2581 c-10 -18 -35 -58 -55 -89 -20 -31 -34 -59 -31 -62 6 -7
26 20 75 103 22 38 37 71 34 74 -3 3 -13 -9 -23 -26z"/>
<path d="M2383 2542 c-34 -36 -60 -68 -57 -71 6 -6 79 64 106 102 36 51 14 36
-49 -31z"/>
<path d="M1931 2549 c-23 -55 -27 -79 -12 -63 14 14 50 114 41 114 -4 0 -17
-23 -29 -51z"/>
<path d="M210 2583 c0 -10 208 -257 220 -261 22 -8 5 17 -96 137 -102 120
-124 143 -124 124z"/>
<path d="M2249 2464 c-57 -68 -106 -132 -107 -142 -5 -22 -3 -20 108 113 46
55 92 110 103 121 10 12 14 24 10 27 -5 3 -56 -50 -114 -119z"/>
<path d="M1100 2555 c-329 -52 -611 -218 -811 -478 -38 -49 -69 -93 -69 -98 0
-14 16 -10 31 8 37 44 170 138 262 183 158 78 230 94 427 94 138 0 178 -4 245
-22 114 -31 266 -110 364 -188 l84 -67 -7 -66 c-3 -35 -11 -68 -17 -72 -7 -4
-30 2 -52 14 -49 25 -141 34 -190 18 -31 -11 -39 -9 -72 13 -46 32 -95 41
-135 27 -29 -9 -31 -8 -41 17 -18 50 -33 73 -70 107 -66 59 -160 71 -244 31
-61 -29 -100 -69 -118 -120 -12 -35 -19 -41 -59 -51 -62 -15 -95 -39 -115 -80
-10 -20 -24 -35 -34 -35 -17 0 -79 -62 -79 -79 0 -15 -62 -34 -120 -36 -129
-5 -200 -38 -185 -84 7 -24 50 -45 72 -37 7 3 32 -4 54 -16 32 -16 51 -20 95
-15 50 5 58 3 105 -29 124 -83 275 -85 403 -4 43 27 52 30 76 20 15 -6 51 -10
81 -9 62 2 118 -7 172 -27 56 -21 186 -18 247 5 41 16 57 17 81 9 17 -6 50 -8
75 -5 24 2 44 1 44 -4 0 -15 -47 -133 -74 -187 -46 -91 -31 -139 55 -167 58
-20 68 -35 45 -70 -20 -31 -20 -44 0 -66 14 -15 14 -23 4 -55 -12 -34 -11 -38
14 -61 27 -25 33 -72 20 -154 l-6 -36 -43 43 c-114 113 -313 71 -370 -80 -15
-39 -21 -44 -56 -49 -50 -7 -85 -29 -110 -72 -11 -19 -29 -37 -40 -40 -25 -8
-66 -49 -73 -72 -9 -28 -62 -44 -156 -48 -73 -3 -98 1 -172 25 -149 50 -271
123 -369 221 -22 22 -43 38 -47 35 -9 -10 16 -48 89 -140 403 -500 1131 -609
1670 -251 591 393 743 1171 346 1765 -64 96 -231 263 -327 327 -269 180 -597
256 -900 208z m253 -12 c2 -5 1 -19 -3 -33 -6 -24 -7 -25 -14 -3 -7 23 -32 37
-48 27 -9 -6 -7 -27 5 -79 2 -8 12 -21 23 -29 17 -13 18 -15 2 -21 -21 -8 -78
30 -78 51 0 11 4 12 19 4 28 -14 36 -12 21 5 -16 19 -49 19 -56 0 -4 -8 -1
-22 5 -29 10 -12 5 -13 -31 -9 -58 8 -91 21 -83 33 3 5 11 10 16 10 6 0 7 -5
3 -11 -4 -7 -1 -10 7 -7 8 3 13 10 12 16 -1 5 5 9 14 8 9 0 18 5 21 13 6 17
-25 9 -93 -26 -31 -16 -71 -26 -105 -28 -30 -2 -63 -6 -73 -10 -35 -15 -28 4
10 24 21 11 34 20 28 21 -5 0 1 7 15 15 14 8 19 14 12 15 -21 0 -53 -20 -47
-30 3 -6 0 -7 -7 -5 -8 3 -32 -10 -55 -30 -23 -19 -46 -35 -52 -35 -6 0 -38
-11 -71 -24 -33 -14 -60 -23 -60 -21 0 27 31 57 82 80 98 44 199 76 219 70 10
-3 28 -1 39 5 12 7 24 10 26 7 3 -3 -21 -21 -53 -41 -31 -20 -54 -36 -50 -36
14 0 71 32 118 66 35 25 57 34 100 37 106 7 178 7 182 0z m36 -51 c0 -26 -4
-56 -8 -67 -7 -16 -10 -10 -16 27 -8 53 0 102 15 93 6 -3 10 -27 9 -53z m81
28 c0 -20 -32 -60 -43 -53 -6 4 -7 1 -2 -6 4 -8 -1 -21 -14 -32 -25 -24 -26
-20 -6 28 23 55 65 95 65 63z m199 -36 c373 -122 667 -414 792 -785 83 -248
87 -490 13 -746 -118 -409 -455 -734 -874 -846 -104 -28 -120 -29 -120 -7 0
10 -4 22 -10 25 -19 12 -11 26 9 15 11 -5 29 -10 40 -10 31 0 27 36 -6 54
l-28 15 26 1 c14 0 34 6 44 14 16 12 17 16 6 30 -14 16 -86 17 -124 1 -34 -14
-8 20 39 49 51 32 69 28 34 -9 -13 -14 -19 -25 -13 -25 5 0 20 11 33 25 22 23
22 27 8 41 -14 15 -18 14 -43 -2 -28 -18 -28 -18 -16 3 15 29 14 60 -3 66 -14
6 -39 -16 -49 -43 -3 -9 -6 -4 -6 12 -1 15 -8 34 -17 43 -9 9 -15 17 -13 19 2
1 31 19 64 39 33 19 92 63 131 96 66 56 73 64 89 124 10 38 16 87 13 125 l-3
61 35 7 35 8 -35 5 c-19 4 -36 3 -38 -1 -2 -4 -12 -3 -22 2 -16 8 -17 14 -7
45 10 34 21 43 30 28 3 -5 44 -9 91 -11 74 -3 86 -1 86 13 0 13 -5 15 -22 8
-36 -12 -82 -6 -126 16 -24 12 -42 16 -44 10 -2 -6 -11 -4 -23 4 -18 14 -18
16 -2 40 20 31 22 61 4 75 -7 6 -35 19 -62 29 -75 28 -79 51 -27 160 46 99 67
166 82 270 11 67 10 73 -9 92 -25 25 -26 50 -5 122 9 30 17 90 18 133 l1 79
-83 67 c-45 37 -123 89 -172 115 -50 26 -90 53 -90 60 0 13 53 89 69 99 15 9
-8 -53 -31 -86 -11 -16 -15 -28 -10 -28 6 0 13 8 18 18 6 14 8 11 13 -13 9
-43 42 -41 57 3 l10 33 12 -26 c26 -57 61 -9 37 50 -8 20 -8 20 13 2 22 -20
53 -20 59 0 3 7 -7 24 -22 37 l-26 25 33 3 c48 5 49 33 1 49 -36 12 -37 13
-15 22 15 7 22 17 20 31 -3 22 -16 24 -58 11 -20 -6 -23 -5 -12 6 6 7 12 21
12 32 0 17 5 18 43 12 23 -4 89 -23 146 -41z m-335 -1 c10 -21 20 -46 22 -57
3 -18 3 -18 -18 0 -18 16 -48 72 -48 89 0 3 6 5 13 5 7 0 21 -17 31 -37z m196
-21 c0 -12 -88 -54 -106 -50 -10 2 0 13 27 31 42 26 79 35 79 19z m-505 -73
c39 -28 135 -53 135 -36 0 10 -74 57 -90 57 -8 0 3 -12 25 -26 38 -24 39 -25
10 -19 -16 4 -41 14 -55 23 l-25 16 32 9 c41 12 199 -1 165 -14 -36 -13 -25
-43 17 -47 l34 -4 -29 -23 c-26 -22 -28 -25 -13 -40 12 -13 21 -14 44 -5 35
13 38 10 16 -19 -17 -23 -18 -23 -70 -7 -29 8 -80 20 -114 27 -34 6 -73 19
-87 29 -14 10 -45 24 -70 33 -53 17 -152 32 -130 19 8 -5 36 -12 61 -15 48 -7
145 -44 136 -53 -6 -6 -126 9 -207 27 -75 16 -46 24 37 9 36 -6 68 -9 70 -6 3
3 -12 8 -33 11 -22 4 -57 12 -79 17 -39 10 -39 11 -15 20 14 5 61 18 105 28
44 10 82 19 83 19 2 1 23 -13 47 -30z m375 -9 c0 -11 -6 -20 -14 -20 -18 0
-29 16 -21 30 11 18 35 11 35 -10z m148 3 c6 -19 -88 -16 -113 3 -18 14 -15
15 44 12 40 -2 66 -8 69 -15z m-868 -23 c-6 -12 -14 -19 -17 -17 -2 3 -12 -1
-21 -9 -9 -9 -52 -37 -95 -64 -42 -28 -106 -77 -142 -110 -86 -80 -96 -77 -15
6 94 95 283 234 298 219 2 -2 -2 -13 -8 -25z m650 20 l25 -7 -26 -7 c-37 -10
-102 -3 -107 12 -4 14 65 15 108 2z m155 -33 c22 -12 41 -31 43 -40 4 -17 2
-17 -27 -2 -19 9 -29 20 -25 27 5 7 3 8 -5 3 -8 -4 -21 1 -32 14 -26 28 -5 27
46 -2z m-141 -8 c-34 -38 -104 -64 -104 -39 0 14 59 42 72 34 6 -4 8 -3 4 4
-3 6 3 12 16 15 13 2 25 5 27 6 2 0 -4 -8 -15 -20z m123 -64 c9 -27 8 -35 -1
-35 -12 0 -45 59 -52 94 -6 34 41 -19 53 -59z m-655 35 l67 -16 -89 -12 c-101
-14 -221 -54 -318 -108 -77 -42 -66 -23 23 41 98 70 207 126 230 118 11 -4 50
-14 87 -23z m589 -74 c-7 -16 -15 -26 -18 -22 -8 8 -5 83 4 111 6 16 9 12 16
-20 6 -26 5 -50 -2 -69z m-415 -175 c45 -21 109 -89 119 -128 4 -19 0 -32 -16
-49 -28 -29 -17 -31 22 -3 54 38 122 38 173 -2 l26 -21 -25 -20 c-14 -11 -25
-24 -25 -30 0 -6 8 -4 18 5 58 53 175 72 252 41 43 -17 47 -23 28 -42 -18 -18
3 -14 24 5 26 23 33 10 20 -36 -12 -40 -34 -51 -98 -51 -13 0 -32 -8 -42 -17
-31 -32 -64 -41 -92 -26 -37 19 -90 16 -129 -8 -30 -18 -33 -22 -18 -31 10 -5
23 -6 29 -2 7 5 26 7 43 6 29 -1 29 0 7 10 -16 8 -29 8 -50 -1 -25 -10 -26
-10 -8 4 21 16 102 20 124 7 8 -5 10 -16 6 -27 -6 -16 -4 -15 14 3 14 14 34
22 55 21 l32 -1 -35 -10 c-19 -5 -39 -14 -45 -20 -7 -7 -3 -8 14 -3 15 5 21 3
17 -3 -4 -6 2 -8 16 -4 20 5 21 6 3 12 -15 5 -12 8 15 14 34 7 34 8 15 22 -17
13 -18 16 -5 25 8 5 26 8 39 5 14 -2 31 2 38 10 22 22 43 17 43 -10 0 -13 8
-34 18 -45 22 -28 19 -116 -4 -107 -17 7 -18 -6 -2 -22 35 -35 -94 -45 -155
-12 -38 20 -38 20 -32 2 4 -16 -1 -22 -26 -31 -38 -13 -69 -14 -69 -2 0 5 -28
11 -62 14 -35 3 -74 8 -88 12 -21 5 -22 5 -7 -5 10 -6 48 -18 85 -26 l67 -14
-63 5 c-75 6 -145 34 -162 65 -6 12 -14 19 -17 17 -2 -3 0 -15 7 -26 9 -18 8
-21 -7 -21 -10 0 -29 7 -42 16 -18 13 -25 14 -31 4 -12 -19 -76 -14 -116 9
-39 23 -48 26 -39 11 10 -16 -13 -39 -69 -68 -45 -24 -62 -27 -146 -27 -83 0
-102 3 -151 27 -31 16 -72 44 -92 63 -41 40 -51 43 -42 15 6 -18 2 -20 -47
-20 -41 0 -62 6 -91 25 -20 14 -37 21 -37 15 0 -15 -36 -12 -49 4 -29 35 28
68 81 48 24 -9 27 -8 18 2 -8 10 -7 15 6 20 28 11 80 6 100 -9 24 -18 35 -19
28 -1 -8 21 33 39 72 33 36 -6 47 7 14 16 -11 3 -20 10 -20 15 0 14 59 72 73
72 7 0 6 -4 -3 -10 -11 -7 -11 -10 -2 -10 7 0 11 -4 8 -9 -4 -5 4 -7 16 -3 14
3 19 2 14 -6 -4 -7 -1 -12 8 -12 9 0 16 7 16 15 0 8 -9 15 -20 15 -13 0 -17 5
-14 14 4 11 13 12 37 5 39 -11 37 -11 37 0 0 5 -17 13 -37 18 l-38 9 41 42
c23 23 50 42 60 41 18 0 18 -1 0 -8 -14 -5 -16 -10 -7 -15 17 -11 44 1 35 15
-7 12 18 10 76 -6 24 -6 24 -6 6 9 -10 8 -23 17 -29 19 -14 4 7 62 38 102 52
70 165 95 251 56z m564 -1311 c50 -25 90 -69 90 -96 0 -25 -29 -41 -42 -22 -5
8 -6 2 -2 -14 6 -28 -9 -40 -19 -15 -3 6 -6 2 -6 -9 -1 -31 -64 -76 -94 -69
-15 4 -28 1 -36 -9 -16 -19 -8 -20 21 -5 16 9 19 8 16 -2 -3 -8 -50 -37 -105
-65 -121 -61 -251 -95 -383 -101 -89 -4 -94 -3 -75 12 13 10 33 15 58 13 41
-4 45 -1 20 17 -16 12 -16 14 0 38 24 37 52 49 103 45 50 -4 60 9 14 19 -16 3
-30 9 -30 12 0 4 14 21 31 39 42 43 101 53 162 27 10 -4 17 -3 17 3 0 6 -9 14
-20 17 -11 3 -20 15 -20 25 0 31 63 114 105 137 53 30 140 31 195 3z m-1004
-406 c45 -30 85 -54 91 -54 5 0 14 -10 19 -22 6 -13 9 -17 7 -10 -2 8 2 10 10
5 6 -4 17 -8 22 -8 22 0 141 -49 160 -66 35 -30 118 -79 134 -79 11 1 9 5 -7
13 -12 7 -19 16 -16 20 4 4 2 8 -4 8 -22 3 -27 5 -55 23 -36 24 -28 32 12 12
33 -18 45 -20 37 -8 -9 15 101 -4 128 -22 35 -22 106 -48 106 -37 0 12 -32 39
-60 50 -24 9 -23 10 11 10 20 1 51 4 69 7 31 7 31 6 19 -14 -11 -17 -11 -24
-1 -34 10 -10 19 -8 43 6 31 18 31 18 20 -2 -6 -11 -11 -30 -11 -42 0 -29 40
-23 56 8 11 23 12 23 16 -7 6 -39 -9 -42 -137 -32 -97 8 -102 10 -168 55 -38
25 -74 46 -80 46 -7 0 14 -17 46 -36 32 -20 56 -38 53 -41 -2 -3 -14 0 -26 7
-11 6 -29 8 -40 5 -29 -9 -279 83 -288 106 -2 5 -10 9 -18 9 -8 0 -14 5 -14
12 0 6 -3 8 -7 5 -13 -14 -160 91 -261 188 -88 83 -101 115 -16 36 38 -34 106
-87 150 -117z m101 17 c199 -58 425 -56 592 3 54 20 51 20 51 -2 0 -10 6 -24
13 -31 10 -11 8 -11 -10 -2 -60 31 -99 -14 -39 -46 16 -9 15 -11 -13 -16 -35
-7 -52 -34 -30 -47 21 -14 10 -17 -76 -24 -115 -9 -142 16 -50 48 53 17 51 5
-3 -24 -20 -10 -31 -19 -24 -20 19 0 65 25 86 49 14 16 16 21 5 21 -32 0 -96
-24 -126 -46 -39 -29 -43 -29 -157 -2 l-91 22 75 7 c71 7 180 43 167 55 -3 3
-15 1 -26 -5 -11 -7 -33 -9 -48 -6 -21 4 -23 3 -9 -3 17 -7 12 -11 -26 -20
-26 -7 -64 -11 -85 -11 -34 1 -32 2 17 10 30 5 60 11 65 14 10 5 -78 -3 -130
-11 -21 -3 -26 -2 -15 4 8 6 35 13 60 17 25 5 39 10 32 13 -7 2 -44 -4 -81
-14 -68 -17 -69 -17 -112 5 -56 29 -236 148 -244 162 -4 5 31 -10 78 -35 47
-24 116 -54 154 -65z m725 47 c-7 -7 -12 -21 -12 -32 0 -19 -1 -19 -20 -1
l-21 19 23 13 c29 16 46 17 30 1z m32 -33 c7 -27 -3 -109 -12 -100 -8 7 -21
108 -15 118 8 14 21 6 27 -18z m-71 -13 c9 -10 23 -35 32 -55 16 -38 16 -38
-5 -27 -13 7 -19 17 -16 26 3 8 2 13 -3 10 -9 -6 -41 36 -41 54 0 15 15 12 33
-8z m131 -30 c-8 -20 -24 -46 -34 -57 -18 -18 -20 -18 -20 -2 0 18 24 71 42
94 20 25 28 1 12 -35z m-185 -12 c5 0 25 -13 46 -30 33 -26 35 -30 16 -30 -14
0 -20 4 -15 12 4 6 3 8 -4 4 -15 -9 -82 25 -82 42 0 9 6 12 16 8 9 -3 19 -6
23 -6z m46 -70 l30 -7 -25 -6 c-46 -12 -103 -12 -107 0 -7 20 46 27 102 13z
m76 -5 c5 4 6 -1 3 -9 -3 -8 -12 -17 -19 -20 -18 -6 -29 25 -13 35 7 5 15 4
16 -1 2 -6 8 -8 13 -5z m149 -14 c0 -14 -57 -24 -98 -16 -26 5 -32 9 -21 16
18 12 119 12 119 0z m-206 -16 c-7 -17 -93 -69 -102 -61 -14 15 39 52 105 75
1 1 0 -6 -3 -14z m6 -51 c-7 -13 -16 -21 -21 -19 -4 3 -5 -3 -2 -13 4 -19 -22
-50 -34 -39 -8 8 15 62 40 94 24 31 36 14 17 -23z m108 32 c12 -4 20 -12 17
-17 -3 -5 0 -6 7 -4 16 6 56 -20 46 -30 -10 -11 -76 17 -99 41 -21 23 -15 25
29 10z m-68 -73 c0 -29 -4 -53 -9 -53 -19 0 -27 60 -14 108 9 37 23 5 23 -55z
m51 25 c32 -45 36 -58 17 -58 -15 0 -53 54 -63 89 -10 32 8 20 46 -31z m-1
-70 c0 -4 -8 -8 -17 -8 -12 0 -18 8 -19 26 -2 24 -1 25 17 8 10 -9 19 -21 19
-26z"/>
<path d="M1665 2290 c3 -5 10 -10 14 -10 5 0 26 -8 47 -17 l39 -17 -40 -7
c-38 -6 -37 -6 20 -9 58 -3 59 -3 20 -10 -40 -7 -40 -7 15 -10 44 -1 50 -4 30
-10 -22 -7 -21 -8 12 -9 30 -1 47 -11 90 -51 l53 -50 -52 20 c-29 11 -53 16
-53 12 0 -5 22 -16 49 -26 27 -9 57 -24 67 -32 18 -14 17 -14 -4 -4 -13 6 -28
10 -34 8 -7 -3 6 -12 29 -21 29 -11 48 -28 68 -62 15 -26 29 -45 31 -42 8 8
-24 72 -60 119 -20 26 -36 55 -37 65 0 14 -2 15 -6 3 -4 -10 -11 -1 -19 25 -8
22 -11 28 -9 13 8 -44 -1 -33 -25 32 -26 68 -39 77 -15 10 15 -43 15 -43 -5
-25 -11 10 -22 26 -25 36 -4 11 -11 19 -17 19 -7 0 -6 -5 1 -14 7 -8 -26 5
-74 30 -83 42 -123 55 -110 34z"/>
<path d="M1566 2096 c33 -30 60 -51 62 -46 2 5 15 6 29 4 23 -4 25 -3 13 10
-7 9 -17 13 -22 10 -5 -3 -21 5 -36 17 -26 23 -26 23 -8 2 32 -39 2 -25 -39
17 -21 22 -43 40 -48 40 -5 0 17 -24 49 -54z"/>
<path d="M1641 1803 c-6 -21 -10 -51 -10 -68 1 -22 3 -18 9 17 5 25 11 56 15
67 3 12 4 21 1 21 -3 0 -10 -17 -15 -37z"/>
<path d="M1813 1751 c-52 -18 -123 -65 -123 -81 0 -5 11 -12 24 -16 17 -4 51
6 106 31 114 52 212 49 293 -7 44 -32 31 -2 -15 31 -81 60 -188 76 -285 42z
m92 -11 c-30 -12 -49 -18 -56 -16 -4 0 -16 -8 -28 -18 -12 -11 -24 -16 -28
-13 -3 4 -13 1 -21 -5 -24 -20 -43 -19 -32 2 13 24 35 31 50 17 9 -8 11 -9 7
-1 -4 7 0 17 8 24 8 7 15 9 15 6 0 -4 7 -3 15 1 8 5 32 9 52 10 28 0 33 -2 18
-7z"/>
<path d="M1863 1628 c-2 -5 11 -8 29 -8 18 0 46 -7 62 -15 36 -19 47 -19 21 1
-11 8 -20 18 -20 22 0 9 -86 9 -92 0z"/>
<path d="M1694 1609 c-14 -23 -33 -114 -25 -122 4 -4 14 24 23 63 15 70 15 80
2 59z"/>
<path d="M1820 1600 c0 -5 6 -10 14 -10 9 0 12 -8 8 -25 -2 -13 -1 -33 3 -42
5 -10 8 -22 7 -28 -1 -5 26 -11 59 -13 57 -2 61 -1 56 17 -3 15 2 22 22 29 14
6 35 17 46 26 20 15 19 15 -7 16 -14 0 -47 9 -73 20 -49 21 -135 27 -135 10z
m151 -34 l33 -14 -42 -21 c-52 -26 -71 -27 -49 -3 10 10 17 26 17 35 0 20 0
20 41 3z"/>
<path d="M2468 1542 c11 -45 12 -70 3 -124 -6 -37 -10 -84 -10 -105 l1 -38 12
48 c6 27 15 45 19 41 4 -4 7 14 7 40 0 51 -27 183 -39 190 -4 3 -1 -20 7 -52z"/>
<path d="M2148 1486 c-58 -21 -123 -62 -157 -101 -37 -42 -74 -112 -68 -128 2
-7 14 8 26 31 27 54 91 124 138 153 19 12 60 30 91 40 35 11 47 18 32 18 -14
0 -41 -6 -62 -13z"/>
<path d="M2187 1469 c-45 -10 -117 -46 -117 -58 0 -4 25 5 56 21 31 15 69 27
83 27 21 -1 22 -2 6 -6 -11 -3 -24 -10 -30 -15 -7 -8 -4 -9 10 -3 11 4 43 11
70 15 38 6 43 8 18 9 -18 0 -33 6 -33 11 0 12 -11 11 -63 -1z"/>
<path d="M2493 1260 c0 -36 -3 -76 -7 -90 -6 -19 -5 -22 4 -14 16 16 25 127
12 150 -8 15 -10 5 -9 -46z"/>
<path d="M1941 1225 c-24 -64 -25 -69 -11 -60 6 3 10 -3 10 -15 0 -13 4 -19
11 -14 6 3 9 24 7 48 -3 23 1 53 9 69 7 15 9 27 4 27 -5 0 -19 -25 -30 -55z"/>
<path d="M1775 1206 c22 -33 13 -74 -20 -86 -37 -14 -30 -19 25 -17 28 1 50 3
50 4 0 1 -3 9 -6 18 -6 14 -8 14 -25 -1 -19 -17 -19 -16 -3 14 13 27 13 36 2
59 -7 14 -19 29 -26 31 -10 3 -9 -3 3 -22z"/>
<path d="M1640 1153 c14 -3 29 -9 35 -14 14 -14 57 -11 53 4 -3 7 -25 13 -59
13 -30 1 -43 0 -29 -3z"/>
<path d="M1655 1040 c-4 -7 2 -9 17 -5 16 4 33 -1 51 -16 16 -12 31 -18 35
-14 4 3 -4 15 -18 25 -27 21 -75 26 -85 10z"/>
<path d="M2157 1043 c-3 -5 -12 -35 -22 -68 -20 -72 -80 -199 -129 -275 l-35
-55 0 50 c0 37 3 45 9 30 8 -18 9 -18 9 5 0 14 -3 31 -8 39 -11 18 -33 -76
-24 -107 6 -26 -8 -49 -78 -127 l-54 -58 -6 39 -6 39 -2 -50 c-2 -38 -4 -45
-11 -30 -8 19 -9 19 -9 -3 -1 -13 -5 -20 -11 -17 -5 3 -10 0 -10 -9 0 -8 -24
-31 -52 -52 -29 -21 -55 -39 -57 -41 -2 -2 -2 -6 2 -9 8 -8 83 45 150 106 37
34 77 58 123 76 38 14 74 30 79 36 11 12 9 12 -74 -21 -83 -33 -46 0 44 40 41
18 75 36 75 41 0 8 -33 -5 -92 -37 -41 -23 -42 -18 -5 28 88 108 167 269 201
410 6 25 2 36 -7 20z"/>
<path d="M2240 980 c-14 -10 -26 -24 -26 -29 -1 -6 -3 -13 -4 -16 -1 -3 -3
-11 -4 -17 -1 -7 -10 -12 -21 -10 -17 2 -17 1 -5 -8 13 -8 11 -11 -7 -16 -13
-4 -23 -13 -23 -20 0 -8 -5 -14 -11 -14 -6 0 -9 -6 -6 -12 5 -17 32 -17 32 -1
0 7 14 27 30 45 17 17 30 36 30 41 0 5 9 16 20 24 20 16 20 16 0 9 -14 -5 -11
1 10 18 35 29 22 35 -15 6z"/>
<path d="M2425 974 c-3 -10 -13 -32 -21 -48 -15 -30 -10 -51 7 -26 12 20 30
83 24 88 -3 3 -7 -4 -10 -14z"/>
<path d="M2409 873 c-19 -42 -58 -113 -86 -157 -56 -85 -62 -96 -38 -76 39 32
176 292 162 307 -2 2 -19 -32 -38 -74z"/>
<path d="M1696 715 c-4 -20 -4 -45 -1 -55 5 -16 9 -18 26 -7 20 13 24 33 10
56 -7 11 -12 7 -20 -20 -10 -32 -10 -32 -5 14 6 55 -1 63 -10 12z"/>
<path d="M1653 511 c-3 -11 -9 -18 -14 -15 -5 3 -9 -4 -9 -15 0 -28 17 -27 26
2 4 12 11 25 16 28 6 4 6 9 -2 14 -7 4 -13 -1 -17 -14z"/>
<path d="M1591 431 c2 -34 2 -35 7 -6 4 26 5 28 12 10 8 -18 9 -17 9 6 1 16
-4 26 -14 26 -11 0 -15 -10 -14 -36z"/>
<path d="M1940 390 c0 -5 -11 -10 -25 -10 -17 0 -23 -4 -19 -14 4 -10 -3 -16
-23 -19 -28 -4 -28 -4 3 -6 23 -1 41 8 64 29 22 21 27 30 16 30 -9 0 -16 -4
-16 -10z"/>
<path d="M1813 321 c-24 -4 -46 -11 -50 -15 -9 -9 93 3 122 15 18 7 17 8 -5 7
-14 0 -44 -4 -67 -7z"/>
<path d="M822 2055 c-32 -14 -82 -60 -82 -77 0 -5 16 7 35 26 19 20 55 41 82
49 33 10 40 15 23 16 -14 0 -40 -6 -58 -14z"/>
<path d="M858 2038 c-16 -5 -28 -15 -28 -21 0 -8 4 -7 12 1 7 7 37 12 68 12
39 0 51 3 40 10 -19 12 -57 11 -92 -2z"/>
<path d="M1030 2007 c0 -4 14 -26 30 -49 17 -22 30 -35 30 -27 -1 14 -59 90
-60 76z"/>
<path d="M1129 1873 c-13 -15 -12 -15 10 -4 14 8 42 11 67 8 24 -2 41 -1 38 4
-10 16 -101 10 -115 -8z"/>
<path d="M828 1854 c-16 -8 -28 -19 -28 -25 0 -6 10 -3 22 5 12 9 36 16 53 15
29 -1 29 -1 5 -9 -24 -8 -24 -8 -2 -9 12 -1 22 -7 22 -16 0 -8 7 -15 15 -15
12 0 13 4 2 28 -20 46 -42 52 -89 26z"/>
<path d="M1380 1848 c-19 -5 -39 -14 -44 -19 -5 -5 6 -4 25 1 41 12 52 13 45
2 -3 -5 8 -6 25 -4 17 3 29 0 29 -7 0 -6 8 -11 17 -11 13 0 14 3 6 11 -6 6 -9
18 -6 25 6 17 -42 18 -97 2z"/>
<path d="M912 1745 c-16 -13 -32 -22 -35 -19 -11 12 -73 -6 -95 -27 -34 -31
-26 -44 9 -15 37 32 80 34 132 6 20 -11 43 -20 49 -20 16 1 -33 39 -49 40 -24
0 -13 18 21 34 42 20 50 20 93 0 20 -10 32 -22 29 -30 -3 -9 0 -11 11 -7 9 4
14 2 10 -3 -3 -6 3 -15 14 -22 11 -7 19 -8 19 -2 0 5 -6 10 -12 11 -7 0 -3 5
10 11 30 15 28 28 -4 28 -14 0 -37 9 -51 20 -38 30 -113 27 -151 -5z"/>
<path d="M622 1718 c-7 -7 -12 -16 -12 -22 0 -6 5 -5 12 2 7 7 27 12 46 12 19
0 31 4 27 10 -9 14 -58 13 -73 -2z"/>
<path d="M817 1683 c-9 -15 18 -29 43 -22 24 7 24 7 -5 9 l-30 2 30 8 30 8
-32 1 c-17 0 -34 -2 -36 -6z"/>
<path d="M491 1588 c-14 -7 -27 -19 -29 -27 -4 -11 1 -10 19 2 26 18 64 23 54
7 -3 -5 0 -10 9 -10 8 0 16 -6 19 -12 2 -7 8 -10 12 -6 4 4 3 13 -3 20 -6 7
-11 18 -11 23 -1 15 -43 17 -70 3z"/>
<path d="M750 1555 c-14 -8 -33 -14 -42 -15 -10 0 -18 -4 -18 -10 0 -5 8 -7
18 -4 49 16 72 27 72 35 0 11 0 11 -30 -6z"/>
<path d="M765 1540 c-42 -27 -151 -53 -212 -51 -29 1 -53 -1 -53 -3 0 -2 28
-9 63 -15 69 -12 160 -1 207 25 33 17 15 17 -35 -1 -22 -8 -56 -14 -75 -14
l-35 1 40 9 c56 13 145 50 145 60 0 13 -11 10 -45 -11z"/>
<path d="M1330 1530 c10 -6 -2 -10 -40 -13 -54 -3 -53 -3 13 -5 49 -1 66 -5
61 -14 -4 -7 -3 -8 4 -4 15 9 15 12 -4 30 -8 9 -23 16 -32 16 -14 0 -15 -2 -2
-10z"/>
<path d="M1348 724 c-16 -8 -28 -20 -28 -26 0 -6 8 -4 19 6 10 9 38 20 62 25
43 9 43 9 9 10 -19 0 -47 -7 -62 -15z"/>
<path d="M1557 712 c11 -9 31 -33 42 -52 12 -19 21 -28 21 -20 0 28 -51 89
-75 89 -5 1 0 -7 12 -17z"/>
<path d="M1499 651 c-16 -28 -16 -29 5 -33 20 -4 23 0 23 29 0 41 -7 42 -28 4z"/>
<path d="M1418 601 c-16 -16 -16 -17 17 -17 29 0 32 2 24 18 -12 22 -19 22
-41 -1z"/>
<path d="M1397 563 c-4 -3 -23 -9 -44 -12 -20 -3 -38 -11 -40 -17 -2 -6 8 -9
26 -6 16 2 38 -1 50 -7 22 -13 30 2 9 16 -9 5 1 12 27 19 39 12 39 12 9 13
-17 1 -34 -2 -37 -6z"/>
<path d="M1143 545 c-13 -9 -20 -22 -17 -30 7 -18 34 -20 35 -2 0 6 2 20 4 30
4 21 5 21 -22 2z"/>
<path d="M1176 445 c-43 -15 -69 -35 -45 -35 7 0 23 7 33 15 21 16 40 20 32 7
-2 -4 13 -8 35 -8 38 -1 39 -1 23 17 -20 22 -26 23 -78 4z"/>
<path d="M1037 432 c-25 -27 -20 -39 6 -15 12 11 29 23 37 26 10 4 9 6 -6 6
-11 1 -28 -7 -37 -17z"/>
<path d="M156 2538 c16 -27 117 -138 121 -134 6 6 -109 144 -120 145 -5 1 -5
-5 -1 -11z"/>
<path d="M91 2513 c64 -73 161 -165 166 -159 8 7 -166 186 -181 186 -5 0 1
-12 15 -27z"/>
<path d="M500 2538 c0 -9 70 -108 76 -108 2 0 4 6 4 13 0 13 -79 107 -80 95z"/>
<path d="M2690 2483 c-64 -54 -80 -73 -63 -73 12 1 139 117 133 123 -3 3 -34
-20 -70 -50z"/>
<path d="M2500 2445 c-41 -41 -70 -75 -64 -75 13 0 149 138 143 144 -3 3 -38
-28 -79 -69z"/>
<path d="M446 2498 c17 -30 77 -99 81 -94 6 6 -69 105 -80 106 -5 0 -5 -6 -1
-12z"/>
<path d="M30 2460 c30 -38 50 -50 50 -31 0 9 -66 71 -76 71 -3 0 9 -18 26 -40z"/>
<path d="M2085 2434 c-15 -19 -24 -38 -21 -41 3 -4 7 -4 9 -2 38 47 57 79 49
79 -5 0 -22 -16 -37 -36z"/>
<path d="M389 2435 c20 -38 69 -90 77 -82 5 4 -14 29 -40 55 -27 26 -43 38
-37 27z"/>
<path d="M2206 2347 c-20 -24 -36 -48 -36 -52 0 -11 38 24 62 58 33 46 13 42
-26 -6z"/>
<path d="M40 2361 c0 -12 231 -191 245 -191 12 1 -14 22 -147 125 -54 42 -98
71 -98 66z"/>
<path d="M2636 2337 c-27 -17 -43 -33 -37 -35 9 -3 42 17 90 55 2 2 2 5 0 7
-3 3 -26 -9 -53 -27z"/>
<path d="M141 2357 c2 -2 39 -34 81 -70 77 -67 108 -87 72 -46 -31 35 -134
119 -146 119 -6 0 -9 -2 -7 -3z"/>
<path d="M2421 2249 c-62 -56 -110 -104 -107 -107 3 -2 35 22 72 54 36 32 87
78 112 101 26 22 44 44 41 47 -4 4 -57 -39 -118 -95z"/>
<path d="M280 2334 c0 -16 67 -87 73 -77 3 5 -12 27 -33 48 -22 22 -40 35 -40
29z"/>
<path d="M2271 2296 c-24 -24 -42 -49 -39 -56 2 -6 25 14 51 45 57 66 49 73
-12 11z"/>
<path d="M2311 2246 c-24 -24 -39 -46 -34 -49 5 -3 28 16 52 44 52 61 40 65
-18 5z"/>
<path d="M2611 2225 c-98 -67 -133 -95 -115 -95 13 0 208 138 212 150 5 14 5
15 -97 -55z"/>
<path d="M2433 2181 c-45 -36 -77 -67 -72 -69 10 -4 113 73 143 107 37 41 10
27 -71 -38z"/>
<path d="M2625 2164 c-88 -50 -90 -52 -84 -59 5 -4 143 77 164 96 17 16 1 9
-80 -37z"/>
<path d="M130 2193 c0 -12 101 -75 108 -68 4 4 0 11 -8 15 -8 5 -34 21 -57 35
-24 14 -43 23 -43 18z"/>
<path d="M80 2146 c0 -4 108 -76 115 -76 18 0 -2 20 -49 48 -51 30 -66 37 -66
28z"/>
<path d="M2599 2072 c-144 -84 -172 -102 -165 -109 5 -6 251 131 291 161 15
11 16 15 5 15 -8 0 -67 -30 -131 -67z"/>
<path d="M2425 2093 c-51 -33 -49 -32 -43 -39 8 -7 88 45 88 57 0 12 -1 12
-45 -18z"/>
<path d="M2715 2079 c-22 -10 -44 -20 -50 -22 -5 -3 -7 -7 -4 -11 8 -8 99 34
99 46 0 4 -1 8 -2 7 -2 0 -21 -9 -43 -20z"/>
<path d="M50 2065 c0 -9 90 -57 101 -53 6 2 -11 16 -39 31 -49 27 -62 31 -62
22z"/>
<path d="M2 2049 c5 -15 130 -90 137 -83 8 7 -21 30 -83 64 -35 20 -57 27 -54
19z"/>
<path d="M325 1983 c-4 -11 -17 -24 -28 -28 l-22 -6 23 -9 c12 -5 22 -16 22
-25 0 -22 18 -19 25 5 3 11 13 20 21 20 8 0 14 5 14 10 0 6 -6 10 -13 10 -8 0
-19 10 -25 23 l-11 22 -6 -22z"/>
<path d="M2518 1975 c-42 -22 -69 -45 -53 -45 10 0 94 51 101 61 7 12 6 12
-48 -16z"/>
<path d="M0 1922 c0 -9 65 -42 83 -42 14 0 -17 21 -55 38 -16 6 -28 8 -28 4z"/>
<path d="M2547 1897 c-32 -17 -54 -33 -48 -35 12 -4 107 44 116 58 10 17 -7
11 -68 -23z"/>
<path d="M2575 1841 c-27 -14 -52 -27 -54 -28 -2 -2 -2 -6 1 -9 3 -3 32 8 64
24 31 16 53 31 48 34 -5 2 -31 -7 -59 -21z"/>
<path d="M2650 1794 c-57 -24 -106 -48 -108 -54 -2 -6 18 -2 45 9 121 48 159
65 167 73 24 20 -7 12 -104 -28z"/>
<path d="M2665 1736 c-104 -36 -100 -34 -92 -42 6 -6 152 41 179 57 31 19 -4
13 -87 -15z"/>
<path d="M2716 1681 c-11 -4 -15 -10 -10 -14 14 -8 54 3 54 14 0 11 -17 11
-44 0z"/>
<path d="M2603 1653 c-13 -2 -23 -9 -23 -14 0 -11 46 -4 85 12 17 6 15 8 -10
7 -16 0 -40 -3 -52 -5z"/>
<path d="M2685 1559 c-82 -15 -95 -19 -95 -29 0 -5 6 -8 13 -5 6 2 45 9 85 15
39 7 72 16 72 21 0 10 -6 10 -75 -2z"/>
<path d="M2651 1509 c-64 -12 -65 -23 -2 -15 56 7 107 26 66 25 -11 -1 -40 -5
-64 -10z"/>
<path d="M2715 1435 c-5 -2 -31 -6 -58 -10 -26 -3 -45 -10 -43 -14 6 -10 117
8 131 20 9 9 -9 11 -30 4z"/>
<path d="M1025 1393 c-4 -11 -17 -24 -28 -28 l-22 -6 23 -9 c12 -5 22 -16 22
-25 0 -22 17 -19 25 4 3 11 16 21 28 24 21 3 21 4 -5 15 -14 6 -28 19 -31 29
-4 16 -6 16 -12 -4z"/>
<path d="M2653 1363 c-18 -2 -33 -8 -33 -13 0 -9 52 -4 105 10 l30 8 -35 -1
c-19 0 -50 -2 -67 -4z"/>
<path d="M1190 1291 c0 -12 -11 -23 -27 -29 l-28 -11 23 -7 c13 -4 28 -18 35
-33 11 -26 11 -26 15 -3 2 14 15 27 30 34 l27 10 -23 9 c-13 5 -26 18 -29 29
-7 25 -23 26 -23 1z"/>
<path d="M2645 1290 c-33 -6 -27 -7 38 -9 45 0 77 3 77 9 0 11 -53 11 -115 0z"/>
<path d="M2625 1230 c3 -5 36 -10 73 -10 47 0 63 3 52 10 -20 13 -133 13 -125
0z"/>
<path d="M2615 1170 c3 -5 30 -10 58 -9 38 0 47 3 32 9 -29 12 -98 12 -90 0z"/>
<path d="M2590 1072 c0 -5 30 -15 68 -21 37 -7 75 -14 85 -17 9 -3 17 -1 17 4
0 10 -36 20 -132 37 -24 5 -38 3 -38 -3z"/>
<path d="M2590 1031 c0 -6 6 -11 13 -12 6 0 33 -4 60 -8 26 -4 47 -5 47 -1 0
4 -21 11 -46 15 -26 3 -53 9 -60 12 -8 3 -14 0 -14 -6z"/>
<path d="M668 1014 c-3 -5 -8 -21 -11 -35 -5 -19 -15 -28 -37 -32 -37 -8 -39
-25 -4 -29 26 -3 35 -12 50 -53 6 -17 8 -16 17 13 8 25 17 35 39 39 41 8 44
21 7 31 -25 6 -35 16 -44 42 -6 19 -14 30 -17 24z m42 -77 c12 -4 11 -6 -3 -6
-10 -1 -21 -9 -25 -18 -6 -17 -9 -16 -29 5 -15 14 -18 22 -9 22 8 0 17 7 20
17 6 14 8 14 19 1 6 -9 19 -18 27 -21z"/>
<path d="M2570 951 c0 -9 119 -35 127 -27 5 4 -26 14 -99 30 -16 4 -28 2 -28
-3z"/>
<path d="M2550 892 c0 -10 118 -37 127 -28 5 4 -23 13 -99 32 -16 3 -28 2 -28
-4z"/>
<path d="M2520 833 c0 -5 48 -25 108 -43 59 -18 113 -35 120 -38 6 -2 12 0 12
5 0 5 -48 24 -107 43 -60 18 -114 35 -120 38 -7 2 -13 0 -13 -5z"/>
<path d="M514 813 c-4 -14 -14 -23 -25 -23 -25 0 -24 -16 1 -23 11 -3 20 -12
20 -21 0 -9 5 -16 10 -16 6 0 10 7 10 16 0 9 9 18 20 21 23 6 27 23 5 23 -9 0
-20 10 -25 23 l-9 22 -7 -22z"/>
<path d="M2524 771 c8 -12 176 -73 189 -68 8 2 -172 77 -188 77 -3 0 -4 -4 -1
-9z"/>
<path d="M28 734 c-16 -8 -28 -19 -28 -24 0 -7 55 18 79 37 13 10 -28 0 -51
-13z"/>
<path d="M747 731 c-3 -11 -16 -25 -28 -30 l-24 -8 23 -7 c13 -4 27 -17 32
-29 l9 -22 6 22 c4 11 17 24 28 28 21 6 21 7 3 14 -10 4 -24 17 -31 30 -12 23
-12 23 -18 2z"/>
<path d="M2480 725 c0 -8 92 -46 97 -41 3 3 -13 14 -36 25 -40 21 -61 26 -61
16z"/>
<path d="M48 650 c-27 -17 -48 -32 -48 -35 0 -8 98 43 105 55 11 17 -8 11 -57
-20z"/>
<path d="M2610 669 c0 -5 26 -21 58 -35 31 -15 65 -31 76 -36 13 -7 17 -7 14
3 -5 15 -148 82 -148 68z"/>
<path d="M63 614 c-35 -20 -63 -40 -63 -45 0 -5 2 -9 4 -9 10 0 125 71 131 80
11 17 -8 10 -72 -26z"/>
<path d="M2432 639 c4 -11 279 -179 294 -179 2 0 4 4 4 9 0 5 -53 39 -117 76
-65 38 -133 77 -152 88 -24 14 -32 16 -29 6z"/>
<path d="M2610 613 c0 -7 114 -71 144 -82 26 -9 -14 20 -72 53 -69 39 -72 40
-72 29z"/>
<path d="M2420 589 c32 -21 92 -50 96 -46 7 6 -81 57 -98 57 -10 0 -9 -3 2
-11z"/>
<path d="M138 533 c-40 -27 -54 -56 -15 -31 12 8 32 21 45 29 21 13 30 30 15
28 -5 0 -25 -12 -45 -26z"/>
<path d="M2370 532 c0 -9 110 -76 116 -69 4 4 -100 77 -111 77 -3 0 -5 -3 -5
-8z"/>
<path d="M123 440 c-40 -33 -73 -65 -73 -70 0 -7 112 77 169 126 2 2 -2 4 -10
4 -8 0 -47 -27 -86 -60z"/>
<path d="M2330 482 c0 -7 14 -17 78 -55 51 -30 37 -5 -18 31 -52 34 -60 37
-60 24z"/>
<path d="M2622 479 c6 -17 115 -92 127 -87 4 1 -23 25 -61 51 -39 27 -68 43
-66 36z"/>
<path d="M33 458 c-31 -22 -42 -38 -25 -38 12 0 78 59 67 60 -6 0 -25 -10 -42
-22z"/>
<path d="M140 373 c-105 -96 -139 -136 -84 -95 49 36 210 191 199 192 -6 0
-58 -44 -115 -97z"/>
<path d="M2305 414 c77 -64 216 -166 221 -162 5 5 -64 62 -181 150 -55 42 -87
52 -40 12z"/>
<path d="M242 370 c-24 -28 -40 -50 -35 -50 10 0 93 83 93 93 0 16 -17 3 -58
-43z"/>
<path d="M2576 401 c24 -22 178 -120 183 -116 5 6 12 1 -85 69 -45 31 -88 56
-95 56 -8 0 -9 -3 -3 -9z"/>
<path d="M2313 334 c60 -56 105 -90 111 -83 5 5 -151 139 -161 139 -4 -1 18
-25 50 -56z"/>
<path d="M282 320 c-24 -28 -39 -50 -35 -50 11 0 93 83 93 93 0 17 -18 4 -58
-43z"/>
<path d="M2217 353 c-3 -5 12 -27 33 -48 22 -22 40 -35 40 -29 0 16 -67 87
-73 77z"/>
<path d="M2530 356 c0 -2 39 -32 86 -66 105 -74 108 -63 5 15 -67 49 -91 63
-91 51z"/>
<path d="M356 279 c-32 -38 -44 -59 -32 -59 9 0 79 91 74 96 -3 3 -22 -14 -42
-37z"/>
<path d="M317 173 c-101 -122 -117 -144 -99 -142 12 2 212 243 212 257 0 6 -1
12 -3 12 -2 0 -51 -57 -110 -127z"/>
<path d="M2130 284 c0 -10 210 -258 222 -263 21 -7 1 20 -102 143 -94 114
-120 139 -120 120z"/>
<path d="M2100 252 c0 -4 21 -28 46 -52 50 -48 50 -39 0 23 -28 35 -46 47 -46
29z"/>
<path d="M2310 252 c0 -11 179 -187 184 -181 6 6 -165 189 -176 189 -5 0 -8
-3 -8 -8z"/>
<path d="M60 175 c-35 -35 -62 -67 -59 -69 3 -3 36 26 74 64 38 39 65 70 59
70 -5 0 -38 -29 -74 -65z"/>
<path d="M467 180 c-16 -22 -24 -40 -19 -40 9 0 62 63 62 74 0 16 -18 2 -43
-34z"/>
<path d="M2040 204 c0 -10 75 -103 83 -104 9 0 3 11 -38 68 -27 38 -45 52 -45
36z"/>
<path d="M2291 205 c0 -5 29 -41 65 -80 36 -38 60 -61 55 -50 -14 28 -120 142
-120 130z"/>
<path d="M83 101 c-46 -49 -83 -93 -83 -98 0 -4 40 33 90 82 84 84 101 105 83
105 -5 0 -45 -40 -90 -89z"/>
<path d="M2490 182 c0 -13 69 -76 75 -70 4 3 -8 22 -25 42 -31 34 -50 45 -50
28z"/>
<path d="M516 142 c-35 -56 -79 -145 -68 -138 6 3 24 30 41 59 16 28 40 67 51
85 12 17 17 32 11 32 -6 0 -21 -17 -35 -38z"/>
<path d="M1990 169 c0 -15 70 -102 77 -96 4 5 -65 107 -73 107 -2 0 -4 -5 -4
-11z"/>
<path d="M2610 173 c1 -12 150 -125 150 -114 0 9 -132 121 -144 121 -3 0 -6
-3 -6 -7z"/>
<path d="M552 85 c-52 -105 -42 -113 13 -9 48 90 49 94 38 94 -5 0 -28 -38
-51 -85z"/>
<path d="M1930 141 c0 -17 82 -141 92 -141 6 0 4 10 -4 23 -9 12 -30 46 -47
75 -32 52 -41 61 -41 43z"/>
<path d="M176 79 c-78 -84 -70 -96 9 -14 36 37 65 69 65 71 0 15 -26 -5 -74
-57z"/>
<path d="M641 109 c-5 -13 -16 -41 -24 -62 -9 -20 -12 -37 -8 -37 11 0 55 109
48 117 -4 3 -11 -5 -16 -18z"/>
<path d="M318 60 c-56 -71 -49 -81 9 -12 46 56 57 72 46 72 -4 0 -29 -27 -55
-60z"/>
<path d="M387 66 c-38 -58 -42 -66 -29 -66 12 0 74 98 70 110 -2 7 -20 -13
-41 -44z"/>
<path d="M698 79 c-22 -51 -30 -79 -23 -79 9 0 46 92 42 104 -2 6 -11 -5 -19
-25z"/>
<path d="M1890 99 c0 -15 51 -99 60 -99 4 0 -5 25 -22 55 -29 55 -38 65 -38
44z"/>
<path d="M1830 85 c0 -12 42 -87 46 -83 6 7 -28 88 -38 88 -4 0 -8 -2 -8 -5z"/>
<path d="M2261 58 c15 -30 40 -58 50 -58 11 0 -43 79 -54 80 -4 0 -2 -10 4
-22z"/>
<path d="M771 46 c-6 -16 -10 -34 -8 -40 3 -6 10 2 16 18 6 16 10 34 8 40 -3
6 -10 -2 -16 -18z"/>
<path d="M809 34 c-11 -30 -3 -46 11 -24 10 16 13 50 5 50 -3 0 -10 -12 -16
-26z"/>
</g>
</svg>
